<svg width="290" height="61" viewBox="0 0 290 61" fill="none" xmlns="http://www.w3.org/2000/svg">
<path d="M28.2268 24.126C37.4903 24.126 44.9999 21.6228 44.9999 18.5349C44.9999 15.447 37.4903 12.9438 28.2268 12.9438C18.9632 12.9438 11.4536 15.447 11.4536 18.5349C11.4536 21.6228 18.9632 24.126 28.2268 24.126Z" stroke="#E87C40" stroke-width="4" stroke-linecap="round" stroke-linejoin="round"/>
<path d="M44.9999 31.5808C44.9999 34.6745 37.5452 37.1718 28.2268 37.1718C18.9084 37.1718 11.4536 34.6745 11.4536 31.5808" stroke="#E87C40" stroke-width="4" stroke-linecap="round" stroke-linejoin="round"/>
<path d="M11.4536 18.5349V44.6265C11.4536 47.7202 18.9084 50.2175 28.2268 50.2175C37.5452 50.2175 44.9999 47.7202 44.9999 44.6265V18.5349" stroke="#E87C40" stroke-width="4" stroke-linecap="round" stroke-linejoin="round"/>
<path d="M38.2268 17.126C47.4903 17.126 54.9999 14.6228 54.9999 11.5349C54.9999 8.44705 47.4903 5.94385 38.2268 5.94385C28.9632 5.94385 21.4536 8.44705 21.4536 11.5349C21.4536 14.6228 28.9632 17.126 38.2268 17.126Z" stroke="#110303" stroke-width="4" stroke-linecap="round" stroke-linejoin="round"/>
<path d="M54.9999 24.5807C54.9999 27.6744 47.5452 30.1717 38.2268 30.1717C28.9084 30.1717 21.4536 27.6744 21.4536 24.5807" stroke="#110303" stroke-width="4" stroke-linecap="round" stroke-linejoin="round"/>
<path d="M21.4536 11.5349V37.6265C21.4536 40.7202 28.9084 43.2175 38.2268 43.2175C47.5452 43.2175 54.9999 40.7202 54.9999 37.6265V11.5349" stroke="#110303" stroke-width="4" stroke-linecap="round" stroke-linejoin="round"/>
<path d="M82.5469 18.5781H84.0234V24.9062C84.0234 25.1615 84.0182 25.4401 84.0078 25.7422C84.0026 26.0443 83.9948 26.3411 83.9844 26.6328C83.974 26.9245 83.9609 27.1849 83.9453 27.4141C83.9349 27.6432 83.9245 27.8151 83.9141 27.9297H83.9766L90.0625 18.5781H91.8828V30H90.4141V23.7344C90.4141 23.4531 90.4193 23.1536 90.4297 22.8359C90.4401 22.5182 90.4505 22.2109 90.4609 21.9141C90.4766 21.612 90.4922 21.3464 90.5078 21.1172C90.5234 20.8828 90.5339 20.7083 90.5391 20.5938H90.4766L84.375 30H82.5469V18.5781ZM96.3359 21.3906V24.9297H100.75V21.3906H102.312V30H100.75V26.1953H96.3359V30H94.7578V21.3906H96.3359ZM110.188 21.3906H111.914L108.281 25.5391L112.211 30H110.398L106.586 25.6328V30H105.008V21.3906H106.586V25.5703L110.188 21.3906ZM120.469 30H118.883V22.6562H116.383C116.279 23.9896 116.148 25.1302 115.992 26.0781C115.836 27.0208 115.638 27.7917 115.398 28.3906C115.164 28.9844 114.878 29.4219 114.539 29.7031C114.201 29.9792 113.792 30.1172 113.312 30.1172C113.141 30.1172 112.979 30.1042 112.828 30.0781C112.677 30.0573 112.547 30.0234 112.438 29.9766V28.7578C112.516 28.7891 112.599 28.8125 112.688 28.8281C112.776 28.8385 112.87 28.8438 112.969 28.8438C113.182 28.8438 113.378 28.7578 113.555 28.5859C113.737 28.4089 113.901 28.1354 114.047 27.7656C114.198 27.3906 114.333 26.9115 114.453 26.3281C114.578 25.7448 114.688 25.0443 114.781 24.2266C114.875 23.4036 114.958 22.4583 115.031 21.3906H120.469V30ZM134.422 25.6797C134.422 26.6224 134.268 27.4297 133.961 28.1016C133.654 28.7682 133.214 29.2786 132.641 29.6328C132.073 29.9818 131.393 30.1562 130.602 30.1562C129.878 30.1562 129.242 30.0052 128.695 29.7031C128.148 29.401 127.714 28.9557 127.391 28.3672C127.068 27.7786 126.878 27.0547 126.82 26.1953H124.719V30H123.148V21.3906H124.719V24.9297H126.836C126.919 24.1432 127.122 23.4766 127.445 22.9297C127.768 22.3828 128.201 21.9635 128.742 21.6719C129.284 21.3802 129.914 21.2344 130.633 21.2344C131.393 21.2344 132.057 21.4115 132.625 21.7656C133.193 22.1146 133.633 22.6198 133.945 23.2812C134.263 23.9427 134.422 24.7422 134.422 25.6797ZM128.414 25.6797C128.414 26.362 128.49 26.9401 128.641 27.4141C128.792 27.888 129.029 28.25 129.352 28.5C129.674 28.7448 130.096 28.8672 130.617 28.8672C131.133 28.8672 131.552 28.7448 131.875 28.5C132.198 28.2552 132.435 27.8958 132.586 27.4219C132.737 26.9479 132.812 26.3672 132.812 25.6797C132.812 25.0026 132.734 24.4297 132.578 23.9609C132.427 23.4922 132.19 23.138 131.867 22.8984C131.549 22.6589 131.133 22.5391 130.617 22.5391C130.102 22.5391 129.682 22.6589 129.359 22.8984C129.036 23.138 128.797 23.4922 128.641 23.9609C128.49 24.4297 128.414 25.0026 128.414 25.6797ZM139.07 21.2344C139.706 21.2344 140.268 21.3203 140.758 21.4922C141.247 21.6641 141.63 21.9193 141.906 22.2578C142.182 22.5911 142.32 23.0052 142.32 23.5C142.32 24.0156 142.174 24.4271 141.883 24.7344C141.591 25.0417 141.195 25.263 140.695 25.3984V25.4688C141.049 25.5625 141.37 25.6927 141.656 25.8594C141.943 26.026 142.172 26.25 142.344 26.5312C142.516 26.8125 142.602 27.1641 142.602 27.5859C142.602 28.0651 142.464 28.5 142.188 28.8906C141.917 29.2812 141.503 29.5911 140.945 29.8203C140.393 30.0443 139.688 30.1562 138.828 30.1562C138.411 30.1562 138.016 30.1328 137.641 30.0859C137.271 30.0443 136.932 29.9818 136.625 29.8984C136.323 29.8151 136.057 29.7161 135.828 29.6016V28.2266C136.193 28.4036 136.622 28.5599 137.117 28.6953C137.617 28.8307 138.156 28.8984 138.734 28.8984C139.172 28.8984 139.565 28.8542 139.914 28.7656C140.263 28.6719 140.539 28.5208 140.742 28.3125C140.951 28.1042 141.055 27.8307 141.055 27.4922C141.055 27.1797 140.964 26.9219 140.781 26.7188C140.599 26.5156 140.326 26.3646 139.961 26.2656C139.602 26.1667 139.143 26.1172 138.586 26.1172H137.492V24.9062H138.422C139.172 24.9062 139.763 24.8125 140.195 24.625C140.633 24.4323 140.852 24.1068 140.852 23.6484C140.852 23.2578 140.69 22.9661 140.367 22.7734C140.044 22.5807 139.568 22.4844 138.938 22.4844C138.484 22.4844 138.06 22.5339 137.664 22.6328C137.273 22.7266 136.867 22.862 136.445 23.0391L135.922 21.8438C136.385 21.6458 136.875 21.4948 137.391 21.3906C137.906 21.2865 138.466 21.2344 139.07 21.2344ZM146.156 21.3906V26.2969C146.156 26.4167 146.151 26.5729 146.141 26.7656C146.135 26.9531 146.125 27.151 146.109 27.3594C146.099 27.5677 146.089 27.763 146.078 27.9453C146.068 28.1276 146.057 28.2682 146.047 28.3672L150.555 21.3906H152.469V30H150.984V25.1875C150.984 24.9948 150.987 24.7578 150.992 24.4766C151.003 24.1901 151.016 23.9141 151.031 23.6484C151.047 23.3828 151.057 23.1771 151.062 23.0312L146.57 30H144.648V21.3906H146.156ZM162.203 23.5781C162.203 24.099 162.049 24.513 161.742 24.8203C161.435 25.1276 161.023 25.3307 160.508 25.4297V25.4922C161.065 25.5651 161.534 25.763 161.914 26.0859C162.299 26.4036 162.492 26.8646 162.492 27.4688C162.492 27.9635 162.37 28.401 162.125 28.7812C161.885 29.1615 161.508 29.4609 160.992 29.6797C160.477 29.8932 159.802 30 158.969 30H155.164V21.3906H158.945C159.581 21.3906 160.141 21.4609 160.625 21.6016C161.115 21.7422 161.5 21.9714 161.781 22.2891C162.062 22.6068 162.203 23.0365 162.203 23.5781ZM160.859 27.4375C160.859 26.974 160.682 26.6406 160.328 26.4375C159.974 26.2292 159.458 26.125 158.781 26.125H156.742V28.7969H158.812C159.464 28.7969 159.966 28.6927 160.32 28.4844C160.68 28.276 160.859 27.9271 160.859 27.4375ZM160.609 23.7344C160.609 23.3646 160.471 23.0885 160.195 22.9062C159.919 22.7188 159.477 22.625 158.867 22.625H156.742V24.9062H158.625C159.281 24.9062 159.776 24.8125 160.109 24.625C160.443 24.4323 160.609 24.1354 160.609 23.7344ZM166.148 21.3906V24.9297H170.562V21.3906H172.125V30H170.562V26.1953H166.148V30H164.57V21.3906H166.148ZM182.344 25.6797C182.344 26.388 182.25 27.0208 182.062 27.5781C181.88 28.1302 181.612 28.599 181.258 28.9844C180.909 29.3646 180.487 29.6562 179.992 29.8594C179.497 30.0573 178.938 30.1562 178.312 30.1562C177.729 30.1562 177.193 30.0573 176.703 29.8594C176.219 29.6562 175.799 29.3646 175.445 28.9844C175.091 28.599 174.818 28.1302 174.625 27.5781C174.432 27.0208 174.336 26.388 174.336 25.6797C174.336 24.737 174.497 23.9349 174.82 23.2734C175.143 22.6068 175.604 22.1016 176.203 21.7578C176.807 21.4089 177.526 21.2344 178.359 21.2344C179.151 21.2344 179.846 21.4089 180.445 21.7578C181.044 22.1068 181.51 22.612 181.844 23.2734C182.177 23.9349 182.344 24.737 182.344 25.6797ZM175.945 25.6797C175.945 26.3411 176.029 26.9115 176.195 27.3906C176.367 27.8646 176.628 28.2292 176.977 28.4844C177.331 28.7396 177.786 28.8672 178.344 28.8672C178.891 28.8672 179.341 28.7396 179.695 28.4844C180.049 28.2292 180.31 27.8646 180.477 27.3906C180.643 26.9115 180.727 26.3411 180.727 25.6797C180.727 25.0234 180.643 24.4609 180.477 23.9922C180.31 23.5234 180.049 23.1641 179.695 22.9141C179.346 22.6641 178.891 22.5391 178.328 22.5391C177.505 22.5391 176.901 22.8151 176.516 23.3672C176.135 23.9141 175.945 24.6849 175.945 25.6797ZM187.984 30.1562C187.193 30.1562 186.5 29.9974 185.906 29.6797C185.312 29.362 184.852 28.8776 184.523 28.2266C184.201 27.5703 184.039 26.7422 184.039 25.7422C184.039 24.7005 184.214 23.849 184.562 23.1875C184.911 22.5208 185.393 22.0286 186.008 21.7109C186.628 21.3932 187.336 21.2344 188.133 21.2344C188.602 21.2344 189.039 21.2812 189.445 21.375C189.857 21.4688 190.201 21.5859 190.477 21.7266L190.008 23C189.716 22.8854 189.401 22.7839 189.062 22.6953C188.729 22.6068 188.411 22.5625 188.109 22.5625C187.557 22.5625 187.099 22.6849 186.734 22.9297C186.375 23.1693 186.104 23.5234 185.922 23.9922C185.74 24.4609 185.648 25.0391 185.648 25.7266C185.648 26.3932 185.737 26.9583 185.914 27.4219C186.096 27.8802 186.362 28.2292 186.711 28.4688C187.065 28.7083 187.505 28.8281 188.031 28.8281C188.495 28.8281 188.911 28.776 189.281 28.6719C189.651 28.5677 189.992 28.4349 190.305 28.2734V29.6562C190.003 29.8229 189.669 29.9479 189.305 30.0312C188.94 30.1146 188.5 30.1562 187.984 30.1562ZM198.523 22.6641H195.695V30H194.133V22.6641H191.336V21.3906H198.523V22.6641ZM201.773 24.8828H204.164C204.935 24.8828 205.573 24.9766 206.078 25.1641C206.589 25.3464 206.969 25.6198 207.219 25.9844C207.474 26.349 207.602 26.8021 207.602 27.3438C207.602 27.8854 207.479 28.3542 207.234 28.75C206.995 29.1458 206.62 29.4531 206.109 29.6719C205.599 29.8906 204.938 30 204.125 30H200.195V21.3906H201.773V24.8828ZM206.031 27.3984C206.031 26.9193 205.857 26.5859 205.508 26.3984C205.164 26.2057 204.674 26.1094 204.039 26.1094H201.773V28.7969H204.055C204.638 28.7969 205.112 28.6901 205.477 28.4766C205.846 28.2578 206.031 27.8984 206.031 27.3984Z" fill="#110303"/>
</svg>
